<?xml version="1.0" encoding="UTF-8" standalone="no"?>
<!-- Created with Inkscape (http://www.inkscape.org/) -->

<svg
   xmlns:dc="http://purl.org/dc/elements/1.1/"
   xmlns:cc="http://creativecommons.org/ns#"
   xmlns:rdf="http://www.w3.org/1999/02/22-rdf-syntax-ns#"
   xmlns:svg="http://www.w3.org/2000/svg"
   xmlns="http://www.w3.org/2000/svg"
   xmlns:sodipodi="http://sodipodi.sourceforge.net/DTD/sodipodi-0.dtd"
   xmlns:inkscape="http://www.inkscape.org/namespaces/inkscape"
   width="44.212399mm"
   height="8.2296mm"
   viewBox="0 0 156.65811 29.16"
   id="svg2"
   version="1.1"
   inkscape:version="0.91 r13725"
   sodipodi:docname="Text.svg">
  <defs
     id="defs4" />
  <sodipodi:namedview
     id="base"
     pagecolor="#ffffff"
     bordercolor="#666666"
     borderopacity="1.0"
     inkscape:pageopacity="0.0"
     inkscape:pageshadow="2"
     inkscape:zoom="0.98994949"
     inkscape:cx="93.032659"
     inkscape:cy="90.517396"
     inkscape:document-units="px"
     inkscape:current-layer="layer2"
     showgrid="false"
     inkscape:window-width="1600"
     inkscape:window-height="851"
     inkscape:window-x="0"
     inkscape:window-y="27"
     inkscape:window-maximized="1"
     fit-margin-top="0"
     fit-margin-left="0"
     fit-margin-right="0"
     fit-margin-bottom="0" />
  <metadata
     id="metadata7">
    <rdf:RDF>
      <cc:Work
         rdf:about="">
        <dc:format>image/svg+xml</dc:format>
        <dc:type
           rdf:resource="http://purl.org/dc/dcmitype/StillImage" />
        <dc:title></dc:title>
      </cc:Work>
    </rdf:RDF>
  </metadata>
  <g
     inkscape:groupmode="layer"
     id="layer2"
     inkscape:label="TextOnly"
     transform="translate(-223.43138,-185.7556)">
    <g
       style="font-style:normal;font-weight:normal;font-size:40px;line-height:125%;font-family:sans-serif;letter-spacing:0px;word-spacing:0px;fill:#008000;fill-opacity:1;stroke:#000000;stroke-width:1px;stroke-linecap:butt;stroke-linejoin:miter;stroke-opacity:1"
       id="text4136"
       transform="translate(9.0913729,140.41121)">
      <path
         d="m 229.08249,62.524391 8.32,-16.2 -6.12,0 -5,10.84 -5,-10.84 -6.12,0 8.4,16.2 0,11 5.52,0 0,-11 z"
         style="font-style:normal;font-variant:normal;font-weight:bold;font-stretch:normal;font-size:40px;line-height:125%;font-family:Titillium;-inkscape-font-specification:'Titillium, Bold';text-align:start;writing-mode:lr-tb;text-anchor:start;fill:#008000;fill-opacity:1;stroke:#000000;stroke-opacity:1"
         id="path4163"
         inkscape:connector-curvature="0" />
      <path
         d="m 249.37437,69.204391 c -4.48,0 -5.6,-2.84 -5.6,-9.12 0,-6.28 1.12,-9.44 5.6,-9.44 4.48,0 5.6,3.16 5.6,9.44 0,6.28 -1.12,9.12 -5.6,9.12 z m 0,4.8 c 8.56,0 11.28,-4.72 11.28,-13.92 0,-9.2 -2.72,-14.24 -11.28,-14.24 -8.56,0 -11.28,5.04 -11.28,14.24 0,9.2 2.72,13.92 11.28,13.92 z"
         style="font-style:normal;font-variant:normal;font-weight:bold;font-stretch:normal;font-size:40px;line-height:125%;font-family:Titillium;-inkscape-font-specification:'Titillium, Bold';text-align:start;writing-mode:lr-tb;text-anchor:start;fill:#008000;fill-opacity:1;stroke:#000000;stroke-opacity:1"
         id="path4165"
         inkscape:connector-curvature="0" />
      <path
         d="m 282.14812,46.924391 c 0,0 -5.32,-1.08 -8.96,-1.08 -5.52,0 -9.28,2.44 -9.28,8.08 0,4.36 2.32,6.44 8.44,8.2 3.92,1.12 4.88,1.88 4.88,3.56 0,2.12 -1.28,3.52 -4.24,3.52 -2.84,0 -8.2,-0.72 -8.2,-0.72 l -0.56,4.28 c 0,0 5.36,1.24 9.08,1.24 5.36,0 9.4,-2.76 9.4,-8.68 0,-4.52 -1.8,-6.16 -7.68,-8.04 -4.56,-1.44 -5.64,-2.04 -5.64,-3.76 0,-1.8 1.4,-2.88 4.36,-2.88 2.32,0 7.96,0.64 7.96,0.64 l 0.44,-4.36 z"
         style="font-style:normal;font-variant:normal;font-weight:bold;font-stretch:normal;font-size:40px;line-height:125%;font-family:Titillium;-inkscape-font-specification:'Titillium, Bold';text-align:start;writing-mode:lr-tb;text-anchor:start;fill:#008000;fill-opacity:1;stroke:#000000;stroke-opacity:1"
         id="path4167"
         inkscape:connector-curvature="0" />
      <path
         d="m 302.82499,73.524391 5.52,0 0,-27.2 -5.52,0 0,11.12 -10.12,0 0,-11.12 -5.52,0 0,27.2 5.52,0 0,-11.28 10.12,0 0,11.28 z"
         style="font-style:normal;font-variant:normal;font-weight:bold;font-stretch:normal;font-size:40px;line-height:125%;font-family:Titillium;-inkscape-font-specification:'Titillium, Bold';text-align:start;writing-mode:lr-tb;text-anchor:start;fill:#008000;fill-opacity:1;stroke:#000000;stroke-opacity:1"
         id="path4169"
         inkscape:connector-curvature="0" />
      <path
         d="m 314.29437,73.524391 5.52,0 0,-27.2 -5.52,0 0,27.2 z"
         style="font-style:normal;font-variant:normal;font-weight:bold;font-stretch:normal;font-size:40px;line-height:125%;font-family:Titillium;-inkscape-font-specification:'Titillium, Bold';text-align:start;writing-mode:lr-tb;text-anchor:start;fill:#008000;fill-opacity:1;stroke:#000000;stroke-opacity:1"
         id="path4171"
         inkscape:connector-curvature="0" />
      <path
         d="m 339.46062,73.524391 6.36,0 -6.08,-13.56 5.92,-13.64 -6.28,0 -4.48,11.56 -3.68,0.4 0,-11.96 -5.52,0 0,27.2 5.52,0 0,-10.44 3.68,-0.4 4.56,10.84 z"
         style="font-style:normal;font-variant:normal;font-weight:bold;font-stretch:normal;font-size:40px;line-height:125%;font-family:Titillium;-inkscape-font-specification:'Titillium, Bold';text-align:start;writing-mode:lr-tb;text-anchor:start;fill:#008000;fill-opacity:1;stroke:#000000;stroke-opacity:1"
         id="path4173"
         inkscape:connector-curvature="0" />
      <path
         d="m 359.21812,69.204391 c -4.48,0 -5.6,-2.84 -5.6,-9.12 0,-6.28 1.12,-9.44 5.6,-9.44 4.48,0 5.6,3.16 5.6,9.44 0,6.28 -1.12,9.12 -5.6,9.12 z m 0,4.8 c 8.56,0 11.28,-4.72 11.28,-13.92 0,-9.2 -2.72,-14.24 -11.28,-14.24 -8.56,0 -11.28,5.04 -11.28,14.24 0,9.2 2.72,13.92 11.28,13.92 z"
         style="font-style:normal;font-variant:normal;font-weight:bold;font-stretch:normal;font-size:40px;line-height:125%;font-family:Titillium;-inkscape-font-specification:'Titillium, Bold';text-align:start;writing-mode:lr-tb;text-anchor:start;fill:#008000;fill-opacity:1;stroke:#000000;stroke-opacity:1"
         id="path4175"
         inkscape:connector-curvature="0" />
    </g>
  </g>
</svg>
